# xmcd
#
# Track frame offsets: 
#        150
#        13952
#        23627
#        39357
#        56852
#        68150
#        85490
#        106000
#        119122
#        133105
#        144952
#        156085
#        168570
#        185692
#        198975
#        212610
#        228552
#        237259
#        250822
#        261237
#        271212
#
# Disc length: 3738 seconds
#
# Revision: 2
# Processed by: cddbd v1.5PL3 Copyright (c) Steve Scherf et al.
# Submitted via: ExactAudioCopy v0.95a4
#
DISCID=320e9815
DTITLE=Bobek Pavel - Ved me dal cesto ma
DYEAR=1998
DGENRE=
TTITLE0=Pojd stoupat jak dym
TTITLE1=Ma divka N
TTITLE2=Tam v dalce tam v horach
TTITLE3=Ja byval hodny taty syn
TTITLE4=Dik ze smim par pratel mit
TTITLE5=Nedelni rano
TTITLE6=Chvile kdy jsem byl s ni
TTITLE7=Venezuela
TTITLE8=Tak ja se loucim
TTITLE9=Vis kdo ti  smi z tvych vlasku copy splest
TTITLE10=Ja jsem byl bloud
TTITLE11=Ved me dal cesto ma
TTITLE12=Vzduch ktery dycham
TTITLE13=Proc mam v koute stat
TTITLE14=Slama v botach
TTITLE15=Dveste cest jak sbohem davat
TTITLE16=The Letter
TTITLE17=The House That Jack Built
TTITLE18=Together Again
TTITLE19=Honky Tonk Man
TTITLE20=Daydream
EXTD=
EXTT0=
EXTT1=
EXTT2=
EXTT3=
EXTT4=
EXTT5=
EXTT6=
EXTT7=
EXTT8=
EXTT9=
EXTT10=
EXTT11=
EXTT12=
EXTT13=
EXTT14=
EXTT15=
EXTT16=
EXTT17=
EXTT18=
EXTT19=
EXTT20=
PLAYORDER=
